<?xml version="1.0" encoding="UTF-8" standalone="no"?>
<svg
   width="800"
   height="511"
   viewBox="0 0 799.99999 511.00001"
   version="1.1"
   xml:space="preserve"
   style="clip-rule:evenodd;fill-rule:evenodd;stroke-linejoin:round;stroke-miterlimit:2"
   id="svg1322"
   sodipodi:docname="design.svg"
   inkscape:version="1.1 (c68e22c387, 2021-05-23)"
   xmlns:inkscape="http://www.inkscape.org/namespaces/inkscape"
   xmlns:sodipodi="http://sodipodi.sourceforge.net/DTD/sodipodi-0.dtd"
   xmlns="http://www.w3.org/2000/svg"
   xmlns:svg="http://www.w3.org/2000/svg"><defs
   id="defs1326"><filter
     style="color-interpolation-filters:sRGB"
     inkscape:label="glow weather"
     id="filter53115"
     x="-0.11280922"
     y="-0.11199238"
     width="1.2256184"
     height="1.2239848"
     inkscape:auto-region="true"><feFlood
       flood-opacity="1"
       flood-color="rgb(224,231,35)"
       result="flood"
       id="feFlood53105" /><feComposite
       in="SourceGraphic"
       in2="flood"
       operator="in"
       result="composite1"
       id="feComposite53107" /><feGaussianBlur
       in="composite1"
       stdDeviation="0.69999999999999996"
       result="blur"
       id="feGaussianBlur53109" /><feOffset
       dx="0"
       dy="0"
       result="offset"
       id="feOffset53111" /><feComposite
       in="SourceGraphic"
       in2="offset"
       operator="over"
       result="composite2"
       id="feComposite53113" /></filter><filter
     style="color-interpolation-filters:sRGB"
     inkscape:label="glow time"
     id="filter59525"
     x="-0.17241379"
     y="-1.8"
     width="1.3448276"
     height="4.6"
     inkscape:auto-region="true"><feFlood
       flood-opacity="1"
       flood-color="rgb(224,231,35)"
       result="flood"
       id="feFlood59515" /><feComposite
       in="SourceGraphic"
       in2="flood"
       operator="in"
       result="composite1"
       id="feComposite59517" /><feGaussianBlur
       in="composite1"
       stdDeviation="1.5"
       result="blur"
       id="feGaussianBlur59519" /><feOffset
       dx="0"
       dy="0"
       result="offset"
       id="feOffset59521" /><feComposite
       in="SourceGraphic"
       in2="offset"
       operator="over"
       result="composite2"
       id="feComposite59523" /></filter><filter
     style="color-interpolation-filters:sRGB"
     inkscape:label="glow text"
     id="filter968"
     x="-0.28735632"
     y="-0.24"
     width="1.5747126"
     height="1.48"
     inkscape:auto-region="true"><feFlood
       flood-opacity="1"
       flood-color="rgb(224,231,35)"
       result="flood"
       id="feFlood958" /><feComposite
       in="SourceGraphic"
       in2="flood"
       operator="in"
       result="composite1"
       id="feComposite960" /><feGaussianBlur
       in="composite1"
       stdDeviation="1"
       result="blur"
       id="feGaussianBlur962" /><feOffset
       dx="0"
       dy="0"
       result="offset"
       id="feOffset964" /><feComposite
       in="SourceGraphic"
       in2="offset"
       operator="over"
       result="composite2"
       id="feComposite966" /></filter></defs><sodipodi:namedview
   id="namedview1324"
   pagecolor="#808080"
   bordercolor="#666666"
   borderopacity="1.0"
   inkscape:pageshadow="2"
   inkscape:pageopacity="0"
   inkscape:pagecheckerboard="false"
   showgrid="false"
   inkscape:zoom="1.8434175"
   inkscape:cx="240.58576"
   inkscape:cy="142.94103"
   inkscape:window-width="1920"
   inkscape:window-height="1001"
   inkscape:window-x="-9"
   inkscape:window-y="-9"
   inkscape:window-maximized="1"
   inkscape:current-layer="layer2"
   fit-margin-top="10"
   fit-margin-left="10"
   fit-margin-right="10"
   fit-margin-bottom="10"
   lock-margins="true"
   inkscape:showpageshadow="false"
   showguides="false"
   width="224.50732px"><inkscape:grid
     type="xygrid"
     id="grid959"
     originx="-9.9999998"
     originy="0" /></sodipodi:namedview>




























<g
   inkscape:groupmode="layer"
   id="layer2"
   inkscape:label="slices"
   style="display:inline"
   transform="translate(13.661752,10.604701)"><path
     id="A100_061"
     style="display:inline;opacity:1;fill:#000000;stroke-width:0.903572"
     inkscape:label="divider"
     d="m 236.33825,79.395299 h 194 v 6 h -194 z" /><path
     id="A100_020"
     style="display:inline;opacity:1;fill:#000000;stroke-width:0.856143"
     inkscape:label="steps"
     inkscape:transform-center-x="31.103485"
     inkscape:transform-center-y="-37.051171"
     d="m 496.33825,133.3953 h 55 v 19 h -55 z" /><path
     id="A100_022"
     style="display:inline;opacity:1;fill:#000000;stroke-width:0.663165"
     inkscape:label="bpm"
     inkscape:transform-center-x="18.662091"
     inkscape:transform-center-y="-37.051171"
     d="m 496.33825,109.3953 h 33 v 19 h -33 z" /><path
     id="A100_051"
     style="display:inline;opacity:1;fill:#000000;stroke-width:1.42129"
     inkscape:label="t0"
     d="m 236.33825,-0.604701 h 45 v 64 h -45 z" /><path
     id="A100_052"
     style="display:inline;opacity:1;fill:#000000;stroke-width:1.42129"
     inkscape:label="t1"
     d="m 285.53562,-0.604701 h 45 v 64 h -45 z" /><path
     id="A100_053"
     style="display:inline;opacity:1;fill:#000000;stroke-width:1.42129"
     inkscape:label="t2"
     d="m 334.733,-0.604701 h 45.00001 v 64 H 334.733 Z" /><path
     id="A100_054"
     style="display:inline;opacity:1;fill:#000000;stroke-width:1.42129"
     inkscape:label="t3"
     d="m 383.93039,-0.604701 h 45 v 64 h -45 z" /><path
     id="A100_055"
     style="display:inline;opacity:1;fill:#000000;stroke-width:1.42129"
     inkscape:label="t4"
     d="m 433.12776,-0.604701 h 45 v 64 h -45 z" /><path
     id="A100_056"
     style="display:inline;opacity:1;fill:#000000;stroke-width:1.42129"
     inkscape:label="t5"
     d="m 482.32512,-0.604701 h 45 v 64 h -45 z" /><path
     id="A100_057"
     style="display:inline;opacity:1;fill:#000000;stroke-width:1.42129"
     inkscape:label="t6"
     d="m 531.52251,-0.604701 h 45 v 64 h -45 z" /><path
     id="A100_058"
     style="display:inline;opacity:1;fill:#000000;stroke-width:1.42129"
     inkscape:label="t7"
     d="m 580.71986,-0.604701 h 45 v 64 h -45 z" /><path
     id="A100_059"
     style="display:inline;opacity:1;fill:#000000;stroke-width:1.42129"
     inkscape:label="t8"
     d="m 629.91725,-0.604701 h 45 v 64 h -45 z" /><path
     id="A100_060"
     style="display:inline;opacity:1;fill:#000000;stroke-width:1.42129"
     inkscape:label="t9"
     d="m 679.11464,-0.604701 h 45 v 64 h -45 z" /><path
     id="A100_002"
     style="display:inline;opacity:1;fill:#000000;stroke-width:1.0955"
     inkscape:label="d6"
     d="m 236.33825,109.3953 h 59 v 29 h -59 z" /><path
     id="A100_003"
     style="display:inline;opacity:1;fill:#000000;stroke-width:1.0955"
     inkscape:label="d0"
     d="m 236.33825,141.3953 h 59 v 29 h -59 z" /><path
     id="A100_004"
     style="display:inline;opacity:1;fill:#000000;stroke-width:1.0955"
     inkscape:label="d1"
     d="m 236.33825,173.3953 h 59 v 29 h -59 z" /><path
     id="A100_005"
     style="display:inline;opacity:1;fill:#000000;stroke-width:1.0955"
     inkscape:label="d2"
     d="m 236.33825,205.3953 h 59 v 29 h -59 z" /><path
     id="A100_006"
     style="display:inline;opacity:1;fill:#000000;stroke-width:1.0955"
     inkscape:label="d3"
     d="m 236.33825,237.3953 h 59 v 29 h -59 z" /><path
     id="A100_007"
     style="display:inline;opacity:1;fill:#000000;stroke-width:1.0955"
     inkscape:label="d4"
     d="m 236.33825,269.3953 h 59 v 29 h -59 z" /><path
     id="A100_008"
     style="display:inline;opacity:1;fill:#000000;stroke-width:1.0955"
     inkscape:label="d5"
     d="m 236.33825,301.3953 h 59 v 29 h -59 z" /><path
     id="A100_040"
     style="display:inline;opacity:1;fill:#000000;stroke-width:0.902021"
     inkscape:label="m01"
     d="m 336.33825,109.3953 h 40 v 29 h -40 z" /><path
     id="A100_041"
     style="display:inline;opacity:1;fill:#000000;stroke-width:0.902021"
     inkscape:label="m02"
     inkscape:transform-center-x="22.620715"
     inkscape:transform-center-y="-56.551787"
     d="m 336.33825,141.3953 h 40 v 29 h -40 z" /><path
     id="A100_042"
     style="display:inline;opacity:1;fill:#000000;stroke-width:0.902021"
     inkscape:label="m03"
     inkscape:transform-center-x="22.620715"
     inkscape:transform-center-y="-56.551787"
     d="m 336.33825,173.3953 h 40 v 29 h -40 z" /><path
     id="A100_043"
     style="display:inline;opacity:1;fill:#000000;stroke-width:0.902021"
     inkscape:label="m04"
     inkscape:transform-center-x="22.620715"
     inkscape:transform-center-y="-56.551787"
     d="m 336.33825,205.3953 h 40 v 29 h -40 z" /><path
     id="A100_044"
     style="display:inline;opacity:1;fill:#000000;stroke-width:0.902021"
     inkscape:label="m05"
     inkscape:transform-center-x="22.620715"
     inkscape:transform-center-y="-56.551787"
     d="m 336.33825,237.3953 h 40 v 29 h -40 z" /><path
     id="A100_045"
     style="display:inline;opacity:1;fill:#000000;stroke-width:0.902021"
     inkscape:label="m06"
     inkscape:transform-center-x="22.620715"
     inkscape:transform-center-y="-56.551787"
     d="m 336.33825,269.3953 h 40 v 29 h -40 z" /><path
     id="A100_046"
     style="display:inline;opacity:1;fill:#000000;stroke-width:0.902021"
     inkscape:label="m07"
     inkscape:transform-center-x="22.620715"
     inkscape:transform-center-y="-56.551787"
     d="m 336.33825,301.3953 h 40 v 29 h -40 z" /><path
     id="A100_047"
     style="display:inline;opacity:1;fill:#000000;stroke-width:0.902021"
     inkscape:label="m08"
     inkscape:transform-center-x="22.620715"
     inkscape:transform-center-y="-56.551787"
     d="m 336.33825,333.3953 h 40 v 29 h -40 z" /><path
     id="A100_048"
     style="display:inline;opacity:1;fill:#000000;stroke-width:0.902021"
     inkscape:label="m09"
     inkscape:transform-center-x="22.620715"
     inkscape:transform-center-y="-56.551787"
     d="m 336.33825,365.3953 h 40 v 29 h -40 z" /><path
     id="A100_049"
     style="display:inline;opacity:1;fill:#000000;stroke-width:0.902021"
     inkscape:label="m10"
     inkscape:transform-center-x="22.620715"
     inkscape:transform-center-y="-56.551787"
     d="m 336.33825,397.3953 h 40 v 29 h -40 z" /><path
     id="A100_050"
     style="display:inline;opacity:1;fill:#000000;stroke-width:0.902021"
     inkscape:label="m11"
     inkscape:transform-center-x="22.620715"
     inkscape:transform-center-y="-56.551787"
     d="m 336.33825,429.3953 h 40 v 29 h -40 z" /><path
     id="A100_039"
     style="display:inline;opacity:1;fill:#000000;stroke-width:0.902021"
     inkscape:label="m12"
     inkscape:transform-center-x="22.620715"
     inkscape:transform-center-y="-56.551787"
     d="m 336.33825,461.3953 h 40 v 29 h -40 z" /><path
     id="A100_009"
     style="display:inline;opacity:1;fill:#000000;stroke-width:0.637825"
     inkscape:label="s0"
     inkscape:transform-center-x="11.310358"
     inkscape:transform-center-y="-56.551787"
     d="m 416.33825,109.3953 h 20 v 29 h -20 z" /><path
     id="A100_010"
     style="display:inline;opacity:1;fill:#000000;stroke-width:0.637825"
     inkscape:label="s1"
     inkscape:transform-center-x="11.310358"
     inkscape:transform-center-y="-56.551787"
     d="m 416.33825,141.3953 h 20 v 29 h -20 z" /><path
     id="A100_011"
     style="display:inline;opacity:1;fill:#000000;stroke-width:0.637825"
     inkscape:label="s2"
     inkscape:transform-center-x="11.310358"
     inkscape:transform-center-y="-56.551787"
     d="m 416.33825,173.3953 h 20 v 29 h -20 z" /><path
     id="A100_012"
     style="display:inline;opacity:1;fill:#000000;stroke-width:0.637825"
     inkscape:label="s3"
     inkscape:transform-center-x="11.310358"
     inkscape:transform-center-y="-56.551787"
     d="m 416.33825,205.3953 h 20 v 29 h -20 z" /><path
     id="A100_013"
     style="display:inline;opacity:1;fill:#000000;stroke-width:0.637825"
     inkscape:label="s4"
     inkscape:transform-center-x="11.310358"
     inkscape:transform-center-y="-56.551787"
     d="m 416.33825,237.3953 h 20 v 29 h -20 z" /><path
     id="A100_014"
     style="display:inline;opacity:1;fill:#000000;stroke-width:0.637825"
     inkscape:label="s5"
     inkscape:transform-center-x="11.310358"
     inkscape:transform-center-y="-56.551787"
     d="m 416.33825,269.3953 h 20 v 29 h -20 z" /><path
     id="A100_015"
     style="display:inline;opacity:1;fill:#000000;stroke-width:0.637825"
     inkscape:label="s6"
     inkscape:transform-center-x="11.310358"
     inkscape:transform-center-y="-56.551787"
     d="m 416.33825,301.3953 h 20 v 29 h -20 z" /><path
     id="A100_016"
     style="display:inline;opacity:1;fill:#000000;stroke-width:0.637825"
     inkscape:label="s7"
     inkscape:transform-center-x="11.310358"
     inkscape:transform-center-y="-56.551787"
     d="m 416.33825,333.3953 h 20 v 29 h -20 z" /><path
     id="A100_017"
     style="display:inline;opacity:1;fill:#000000;stroke-width:0.637825"
     inkscape:label="s8"
     inkscape:transform-center-x="11.310358"
     inkscape:transform-center-y="-56.551787"
     d="m 416.33825,365.3953 h 20 v 29 h -20 z" /><path
     id="A100_018"
     style="display:inline;opacity:1;fill:#000000;stroke-width:0.637825"
     inkscape:label="s9"
     inkscape:transform-center-x="11.310358"
     inkscape:transform-center-y="-56.551787"
     d="m 416.33825,397.3953 h 20 v 29 h -20 z" /><path
     id="A100_038"
     style="display:inline;opacity:1;fill:#000000;stroke-width:0.637825"
     inkscape:label="s-slash"
     inkscape:transform-center-x="11.310358"
     inkscape:transform-center-y="-56.551787"
     d="m 416.33825,429.3953 h 20 v 29 h -20 z" /><path
     id="A100_021"
     style="display:inline;opacity:1;fill:#000000;stroke-width:0.902021"
     inkscape:label="s-dashes"
     inkscape:transform-center-x="22.620716"
     inkscape:transform-center-y="-56.551787"
     d="m 416.33825,461.3953 h 40 v 29 h -40 z" /><path
     id="A100_023"
     style="display:inline;opacity:1;fill:#000000;stroke-width:0.637825"
     inkscape:label="s-neg"
     inkscape:transform-center-x="11.310358"
     inkscape:transform-center-y="-56.551787"
     d="m 436.33825,461.3953 h 20 v 29 h -20 z" /><path
     id="A100_035"
     style="display:inline;opacity:1;fill:#000000;stroke-width:0.588046"
     inkscape:label="s-degree"
     inkscape:transform-center-x="9.6138043"
     inkscape:transform-center-y="-56.551787"
     d="m 436.33825,109.3953 h 17 v 29 h -17 z" /><path
     id="A100_019"
     style="clip-rule:evenodd;display:inline;opacity:1;fill:#000000;fill-rule:evenodd;stroke-width:0.588046;stroke-linejoin:round;stroke-miterlimit:2"
     inkscape:label="s-blank"
     inkscape:transform-center-x="9.6138043"
     inkscape:transform-center-y="-56.551787"
     d="m 436.33825,141.3953 h 17 v 29 h -17 z" /><path
     id="A100_025"
     style="display:inline;opacity:1;fill:#000000;stroke-width:0.867536"
     inkscape:label="w01"
     inkscape:transform-center-x="20.924159"
     inkscape:transform-center-y="-56.551788"
     d="m 586.33825,109.3953 h 37 v 29 h -37 z" /><path
     id="A100_037"
     style="clip-rule:evenodd;display:inline;fill:#000000;fill-rule:evenodd;stroke-width:0.370779;stroke-linejoin:round;stroke-miterlimit:2"
     inkscape:label="u1"
     inkscape:transform-center-x="7.9172493"
     inkscape:transform-center-y="-27.300863"
     d="m 676.33825,109.3953 h 14 v 14 h -14 z" /><path
     id="A100_036"
     style="clip-rule:evenodd;display:inline;fill:#000000;fill-rule:evenodd;stroke-width:0.370779;stroke-linejoin:round;stroke-miterlimit:2"
     inkscape:label="u0"
     inkscape:transform-center-x="7.9172493"
     inkscape:transform-center-y="-27.300863"
     d="m 676.33825,123.3953 h 14 v 14 h -14 z" /><path
     id="A100_026"
     style="display:inline;opacity:1;fill:#000000;stroke-width:0.867536"
     inkscape:label="w02"
     inkscape:transform-center-x="20.924159"
     inkscape:transform-center-y="-56.55179"
     d="m 586.33825,138.3953 h 37 v 29 h -37 z" /><path
     id="A100_027"
     style="display:inline;opacity:1;fill:#000000;stroke-width:0.867536"
     inkscape:label="w03"
     inkscape:transform-center-x="20.924159"
     inkscape:transform-center-y="-56.551789"
     d="m 586.33825,167.3953 h 37 v 29 h -37 z" /><path
     id="A100_028"
     style="display:inline;opacity:1;fill:#000000;stroke-width:0.867536"
     inkscape:label="w04"
     inkscape:transform-center-x="20.924159"
     inkscape:transform-center-y="-56.551789"
     d="m 586.33825,196.3953 h 37 v 29 h -37 z" /><path
     id="A100_029"
     style="display:inline;opacity:1;fill:#000000;stroke-width:0.867536"
     inkscape:label="w05"
     inkscape:transform-center-x="20.924159"
     inkscape:transform-center-y="-56.551788"
     d="m 586.33825,225.3953 h 37 v 29 h -37 z" /><path
     id="A100_030"
     style="display:inline;opacity:1;fill:#000000;stroke-width:0.867536"
     inkscape:label="w06"
     inkscape:transform-center-x="20.924159"
     inkscape:transform-center-y="-56.551788"
     d="m 586.33825,254.3953 h 37 v 29 h -37 z" /><path
     id="A100_031"
     style="display:inline;opacity:1;fill:#000000;stroke-width:0.867536"
     inkscape:label="w07"
     inkscape:transform-center-x="20.924159"
     inkscape:transform-center-y="-56.551788"
     d="m 586.33825,283.3953 h 37 v 29 h -37 z" /><path
     id="A100_032"
     style="display:inline;opacity:1;fill:#000000;stroke-width:0.867536"
     inkscape:label="w08"
     inkscape:transform-center-x="20.924159"
     inkscape:transform-center-y="-56.551787"
     d="m 586.33825,312.3953 h 37 v 29 h -37 z" /><path
     id="A100_033"
     style="display:inline;opacity:1;fill:#000000;stroke-width:0.867536"
     inkscape:label="w09"
     inkscape:transform-center-x="20.924159"
     inkscape:transform-center-y="-56.551787"
     d="m 586.33825,341.3953 h 37 v 29 h -37 z" /><path
     id="A100_034"
     style="display:inline;opacity:1;fill:#000000;stroke-width:0.867536"
     inkscape:label="w10"
     inkscape:transform-center-x="20.924159"
     inkscape:transform-center-y="-56.551786"
     d="m 586.33825,370.41321 h 37 v 29 h -37 z" /><path
     id="A100_024"
     style="display:inline;opacity:1;fill:#000000;stroke-width:0.867536"
     inkscape:label="w00"
     inkscape:transform-center-x="20.924159"
     inkscape:transform-center-y="-56.551786"
     d="m 586.33825,399.4152 h 37 v 29 h -37 z" /><rect
     id="A100_001"
     width="194"
     height="368"
     x="-13.661752"
     y="-357.39529"
     style="clip-rule:evenodd;display:inline;fill-rule:evenodd;stroke-linejoin:round;stroke-miterlimit:2"
     inkscape:label="preview"
     transform="scale(1,-1)" /></g><g
   inkscape:groupmode="layer"
   id="layer3"
   inkscape:label="preview"
   sodipodi:insensitive="true"><rect
     id="A100_001-8"
     width="194"
     height="368"
     x="0"
     y="0"
     style="clip-rule:evenodd;display:inline;fill-rule:evenodd;stroke-linejoin:round;stroke-miterlimit:2"
     inkscape:label="bg"
     sodipodi:insensitive="true" /><g
     inkscape:groupmode="layer"
     id="layer6"
     inkscape:label="placement"><path
       id="A100_022-3-3"
       style="clip-rule:evenodd;display:inline;fill:#000000;fill-rule:evenodd;stroke-width:0.663165;stroke-linejoin:round;stroke-miterlimit:2"
       inkscape:label="bpm"
       inkscape:transform-center-x="18.662091"
       inkscape:transform-center-y="-37.051171"
       d="m 7,344 h 32.999995 v 19 H 7 Z" /><path
       id="A100_009-39"
       style="clip-rule:evenodd;display:inline;fill:#000000;fill-rule:evenodd;stroke-width:0.637825;stroke-linejoin:round;stroke-miterlimit:2"
       inkscape:label="s0"
       inkscape:transform-center-x="11.310358"
       inkscape:transform-center-y="-56.551787"
       d="m 172,193.00001 h 20 v 29 h -20 z" /><path
       id="A100_009-39-3"
       style="clip-rule:evenodd;display:inline;fill:#000000;fill-rule:evenodd;stroke-width:0.637825;stroke-linejoin:round;stroke-miterlimit:2"
       inkscape:label="s0"
       inkscape:transform-center-x="11.310358"
       inkscape:transform-center-y="-56.551787"
       d="m 152,193.00001 h 20 v 29 h -20 z" /><path
       id="A100_009-39-3-2-0"
       style="clip-rule:evenodd;display:inline;fill:#000000;fill-rule:evenodd;stroke-width:0.902021;stroke-linejoin:round;stroke-miterlimit:2"
       inkscape:label="s0"
       inkscape:transform-center-x="22.620709"
       inkscape:transform-center-y="-56.551787"
       d="m 3,312 h 40.000003 v 29 H 3 Z" /><path
       id="A100_009-39-3-2-0-1"
       style="clip-rule:evenodd;display:inline;fill:#000000;fill-rule:evenodd;stroke-width:1.27565;stroke-linejoin:round;stroke-miterlimit:2"
       inkscape:label="s0"
       inkscape:transform-center-x="45.24142"
       inkscape:transform-center-y="-56.551787"
       d="m 111,312 h 80 v 29 h -80 z" /><path
       id="A100_022-3"
       style="clip-rule:evenodd;display:inline;fill:#000000;fill-rule:evenodd;stroke-width:0.856142;stroke-linejoin:round;stroke-miterlimit:2"
       inkscape:label="bpm"
       inkscape:transform-center-x="31.103485"
       inkscape:transform-center-y="-37.051171"
       d="m 132.0002,344 h 55 v 19 h -55 z" /><path
       id="A100_009-3"
       style="clip-rule:evenodd;display:inline;fill:#000000;fill-rule:evenodd;stroke-width:0.637825;stroke-linejoin:round;stroke-miterlimit:2"
       inkscape:label="s0"
       inkscape:transform-center-x="11.310358"
       inkscape:transform-center-y="-56.551787"
       d="m 132,193.00001 h 20 v 29 h -20 z" /><path
       id="A100_035-2"
       style="clip-rule:evenodd;display:inline;fill:#000000;fill-rule:evenodd;stroke-width:0.588046;stroke-linejoin:round;stroke-miterlimit:2"
       inkscape:label="s-degree"
       inkscape:transform-center-x="9.6138043"
       inkscape:transform-center-y="-56.551787"
       d="m 129.0001,5 h 17 v 29.000003 h -17 z" /><path
       id="A100_009-39-3-2"
       style="clip-rule:evenodd;display:inline;fill:#000000;fill-rule:evenodd;stroke-width:0.902021;stroke-linejoin:round;stroke-miterlimit:2"
       inkscape:label="s0"
       inkscape:transform-center-x="22.620709"
       inkscape:transform-center-y="-56.551787"
       d="M 89.000101,5.000003 H 129.0001 v 29 H 89.000101 Z" /><path
       id="A100_040-0"
       style="clip-rule:evenodd;display:inline;fill:#000000;fill-rule:evenodd;stroke-width:0.902021;stroke-linejoin:round;stroke-miterlimit:2"
       inkscape:label="m01"
       d="m 92,193.00001 h 40 v 29 H 92 Z" /><path
       id="A100_002-4"
       style="clip-rule:evenodd;display:inline;fill:#000000;fill-rule:evenodd;stroke-width:1.0955;stroke-linejoin:round;stroke-miterlimit:2"
       inkscape:label="d6"
       d="m 2,193.00001 h 59 v 29.00001 H 2 Z" /><path
       id="A100_061-7"
       style="clip-rule:evenodd;display:inline;fill:#000000;fill-rule:evenodd;stroke-width:0.903572;stroke-linejoin:round;stroke-miterlimit:2"
       inkscape:label="divider"
       d="m 0,181.00001 h 194 v 6 H 0 Z" /><path
       id="A100_028-3"
       style="clip-rule:evenodd;display:inline;fill:#000000;fill-rule:evenodd;stroke-width:0.867536;stroke-linejoin:round;stroke-miterlimit:2"
       inkscape:label="w04"
       inkscape:transform-center-x="20.924159"
       inkscape:transform-center-y="-56.551789"
       d="m 152,5 h 37 v 29 h -37 z" /><path
       id="A100_037-2"
       style="clip-rule:evenodd;display:inline;fill:#000000;fill-rule:evenodd;stroke-width:0.370779;stroke-linejoin:round;stroke-miterlimit:2"
       inkscape:label="u1"
       inkscape:transform-center-x="7.9172493"
       inkscape:transform-center-y="-27.300863"
       d="M 5,5 H 19 V 19 H 5 Z" /><path
       id="A100_051-8"
       style="clip-rule:evenodd;display:inline;fill:#000000;fill-rule:evenodd;stroke-width:1.42129;stroke-linejoin:round;stroke-miterlimit:2"
       inkscape:label="t0"
       d="m 0,110 h 45 v 64 H 0 Z" /><path
       id="A100_051-8-6"
       style="clip-rule:evenodd;display:inline;fill:#000000;fill-rule:evenodd;stroke-width:1.42129;stroke-linejoin:round;stroke-miterlimit:2"
       inkscape:label="t0"
       d="m 49,110 h 44.999995 v 64 H 49 Z" /><path
       id="A100_051-8-1"
       style="clip-rule:evenodd;display:inline;fill:#000000;fill-rule:evenodd;stroke-width:1.42129;stroke-linejoin:round;stroke-miterlimit:2"
       inkscape:label="t0"
       d="m 100,110 h 45 v 64 h -45 z" /><path
       id="A100_051-8-6-5"
       style="clip-rule:evenodd;display:inline;fill:#000000;fill-rule:evenodd;stroke-width:1.42129;stroke-linejoin:round;stroke-miterlimit:2"
       inkscape:label="t0"
       d="m 149,110 h 44.99999 v 64 H 149 Z" /></g><g
     inkscape:groupmode="layer"
     id="layer5"
     inkscape:label="elements"><text
       x="6.7060018"
       y="358.07199"
       style="font-style:normal;font-variant:normal;font-weight:normal;font-stretch:normal;font-size:18px;line-height:24px;font-family:Larabiefont;-inkscape-font-specification:Larabiefont;clip-rule:evenodd;display:inline;mix-blend-mode:normal;fill:#e0e722;fill-opacity:1;fill-rule:evenodd;stroke-linejoin:round;stroke-miterlimit:2;filter:url(#filter968)"
       id="text1078-5-5-1-1-9-6"><tspan
         sodipodi:role="line"
         x="6.7060018"
         y="358.07199"
         style="font-size:18px;fill:#e0e722;fill-opacity:1"
         id="tspan36357-5-1-0">bpm</tspan></text><text
       x="172.16"
       y="219.05202"
       style="font-style:normal;font-variant:normal;font-weight:normal;font-stretch:normal;font-size:32px;line-height:32px;font-family:Larabiefont;-inkscape-font-specification:Larabiefont;clip-rule:evenodd;display:inline;mix-blend-mode:normal;fill:#e0e623;fill-opacity:1;fill-rule:evenodd;stroke-linejoin:round;stroke-miterlimit:2;filter:url(#filter968)"
       id="text1078-5-5-5"><tspan
         sodipodi:role="line"
         x="172.16"
         y="219.05202"
         style="font-size:32px;fill:#e0e623;fill-opacity:1"
         id="tspan27749-3">8</tspan></text><text
       x="152.17599"
       y="219.05202"
       style="font-style:normal;font-variant:normal;font-weight:normal;font-stretch:normal;font-size:32px;line-height:32px;font-family:Larabiefont;-inkscape-font-specification:Larabiefont;clip-rule:evenodd;display:inline;mix-blend-mode:normal;fill:#e0e623;fill-opacity:1;fill-rule:evenodd;stroke-linejoin:round;stroke-miterlimit:2;filter:url(#filter968)"
       id="text1078-5-5-5-0"><tspan
         sodipodi:role="line"
         x="152.17599"
         y="219.05202"
         style="font-size:32px;fill:#e0e623;fill-opacity:1"
         id="tspan27749-3-1">1</tspan></text><text
       x="3.5280051"
       y="338.052"
       style="font-style:normal;font-variant:normal;font-weight:normal;font-stretch:normal;font-size:32px;line-height:32px;font-family:Larabiefont;-inkscape-font-specification:Larabiefont;clip-rule:evenodd;display:inline;mix-blend-mode:normal;fill:#e0e623;fill-opacity:1;fill-rule:evenodd;stroke-linejoin:round;stroke-miterlimit:2;filter:url(#filter968)"
       id="text1078-5-5-5-0-8-8"><tspan
         sodipodi:role="line"
         x="3.5280051"
         y="338.052"
         style="font-size:32px;fill:#e0e623;fill-opacity:1"
         id="tspan27749-3-1-1-0">97</tspan></text><text
       x="111.52801"
       y="338.052"
       style="font-style:normal;font-variant:normal;font-weight:normal;font-stretch:normal;font-size:32px;line-height:32px;font-family:Larabiefont;-inkscape-font-specification:Larabiefont;clip-rule:evenodd;display:inline;mix-blend-mode:normal;fill:#e0e623;fill-opacity:1;fill-rule:evenodd;stroke-linejoin:round;stroke-miterlimit:2;filter:url(#filter968)"
       id="text1078-5-5-5-0-8-8-9"><tspan
         sodipodi:role="line"
         x="111.52801"
         y="338.052"
         style="font-size:32px;fill:#e0e623;fill-opacity:1"
         id="tspan27749-3-1-1-0-6">7645</tspan></text><text
       x="131.82521"
       y="358.07199"
       style="font-style:normal;font-variant:normal;font-weight:normal;font-stretch:normal;font-size:18px;line-height:24px;font-family:Larabiefont;-inkscape-font-specification:Larabiefont;clip-rule:evenodd;display:inline;mix-blend-mode:normal;fill:#e0e722;fill-opacity:1;fill-rule:evenodd;stroke-linejoin:round;stroke-miterlimit:2;filter:url(#filter968)"
       id="text1078-5-5-1-1-9"><tspan
         sodipodi:role="line"
         x="131.82521"
         y="358.07199"
         style="font-size:18px;fill:#e0e722;fill-opacity:1"
         id="tspan36357-5-1">steps</tspan></text><text
       x="132.16"
       y="219.06801"
       style="font-style:normal;font-variant:normal;font-weight:normal;font-stretch:normal;font-size:32px;line-height:32px;font-family:Larabiefont;-inkscape-font-specification:Larabiefont;clip-rule:evenodd;display:inline;mix-blend-mode:normal;fill:#e0e623;fill-opacity:1;fill-rule:evenodd;stroke-linejoin:round;stroke-miterlimit:2;filter:url(#filter968)"
       id="text1078-5-5-2"><tspan
         sodipodi:role="line"
         x="132.16"
         y="219.06801"
         style="font-size:32px;fill:#e0e623;fill-opacity:1"
         id="tspan27749-0">/</tspan></text><text
       x="127.6601"
       y="29.644003"
       style="font-style:normal;font-variant:normal;font-weight:normal;font-stretch:normal;font-size:32px;line-height:32px;font-family:Larabiefont;-inkscape-font-specification:Larabiefont;clip-rule:evenodd;display:inline;mix-blend-mode:normal;fill:#e0e623;fill-opacity:1;fill-rule:evenodd;stroke-linejoin:round;stroke-miterlimit:2;filter:url(#filter968)"
       id="text1078-5-5-4-4"><tspan
         sodipodi:role="line"
         x="127.6601"
         y="29.644003"
         style="font-size:32px;fill:#e0e623;fill-opacity:1"
         id="tspan27749-2-0">°</tspan></text><text
       x="89.208099"
       y="31.052004"
       style="font-style:normal;font-variant:normal;font-weight:normal;font-stretch:normal;font-size:32px;line-height:32px;font-family:Larabiefont;-inkscape-font-specification:Larabiefont;clip-rule:evenodd;display:inline;mix-blend-mode:normal;fill:#e0e623;fill-opacity:1;fill-rule:evenodd;stroke-linejoin:round;stroke-miterlimit:2;filter:url(#filter968)"
       id="text1078-5-5-5-0-8"><tspan
         sodipodi:role="line"
         x="89.208099"
         y="31.052004"
         style="font-size:32px;fill:#e0e623;fill-opacity:1"
         id="tspan27749-3-1-1">75</tspan></text><text
       x="92.336006"
       y="219.05202"
       style="font-style:normal;font-variant:normal;font-weight:normal;font-stretch:normal;font-size:32px;line-height:32px;font-family:Larabiefont;-inkscape-font-specification:Larabiefont;clip-rule:evenodd;display:inline;mix-blend-mode:normal;fill:#e0e722;fill-opacity:1;fill-rule:evenodd;stroke-linejoin:round;stroke-miterlimit:2;filter:url(#filter968)"
       id="text1078-5-8"><tspan
         sodipodi:role="line"
         x="92.336006"
         y="219.05202"
         style="font-size:32px;fill:#e0e722;fill-opacity:1"
         id="tspan25738-7">10</tspan></text><text
       x="1.9800073"
       y="219.05202"
       style="font-style:normal;font-variant:normal;font-weight:normal;font-stretch:normal;font-size:32px;line-height:32px;font-family:Larabiefont;-inkscape-font-specification:Larabiefont;clip-rule:evenodd;display:inline;mix-blend-mode:normal;fill:#e0e722;fill-opacity:1;fill-rule:evenodd;stroke-linejoin:round;stroke-miterlimit:2;filter:url(#filter968)"
       id="text1078-3"><tspan
         sodipodi:role="line"
         x="1.9800073"
         y="219.05202"
         id="tspan19683-9"
         style="font-size:32px">Fri</tspan></text><rect
       x="5.0359998"
       y="183.99362"
       width="186"
       height="2"
       style="clip-rule:evenodd;display:inline;fill:#e0e722;fill-opacity:1;fill-rule:evenodd;stroke-width:0.75304;stroke-linejoin:round;stroke-miterlimit:2;filter:url(#filter59525)"
       id="rect1190-1" /><path
       id="path1214-9"
       style="clip-rule:evenodd;display:inline;fill:#e0e722;fill-opacity:1;fill-rule:nonzero;stroke-width:0.517383;stroke-linejoin:round;stroke-miterlimit:2;filter:url(#filter53115)"
       d="m 166.3463,12.890275 c 0.20157,0.20304 0.46499,0.30429 0.72893,0.30429 0.26394,0 0.52736,-0.10125 0.72893,-0.30429 0.40261,-0.40554 0.40261,-1.06294 0,-1.46848 l -1.45786,-1.46849 c -0.40261,-0.40555 -1.05524,-0.40555 -1.45785,0 -0.40261,0.40555 -0.40261,1.06294 0,1.46849 z m 15.31056,0.30429 c 0.26394,0 0.52736,-0.10125 0.72893,-0.30429 l 1.45785,-1.46848 c 0.40261,-0.40555 0.40261,-1.06294 0,-1.46849 -0.40261,-0.40555 -1.05524,-0.40555 -1.45785,0 l -1.45786,1.46849 c -0.40261,0.40554 -0.40261,1.06294 0,1.46848 0.20105,0.20304 0.46499,0.30429 0.72893,0.30429 z m 5.08135,5.26693 h -2.06203 c -0.56963,0 -1.03101,0.46526 -1.03101,1.03853 0,0.57327 0.46138,1.03853 1.03101,1.03853 h 2.06203 c 0.56912,0 1.03101,-0.46526 1.03101,-1.03853 0,-0.57327 -0.46189,-1.03853 -1.03101,-1.03853 z m -12.37217,-8.30827 c 0.56912,0 1.03102,-0.46526 1.03102,-1.03853 v -2.07707 c 0,-0.57327 -0.4619,-1.03853 -1.03102,-1.03853 -0.56963,0 -1.03101,0.46526 -1.03101,1.03853 v 2.07707 c 0,0.57327 0.46138,1.03853 1.03101,1.03853 z m 6.47271,12.5595 c 0.48715,-0.99491 0.74439,-2.08797 0.74439,-3.2127 0,-4.00874 -3.23738,-7.26973 -7.2171,-7.26973 -2.37184,0 -4.58543,1.18444 -5.92626,3.1265 -0.0866,-0.003 -0.17218,-0.0109 -0.2593,-0.0109 -3.95085,0 -7.33,2.60256 -8.40844,6.32674 -0.29744,-0.0545 -0.60933,-0.0956 -0.87069,-0.0956 -3.12706,0 -5.67057,2.56259 -5.67057,5.71194 0,3.14935 2.54351,5.71193 5.67057,5.71193 h 18.55825 c 3.12655,0 5.67058,-2.56258 5.67058,-5.71193 0,-1.87352 -0.9042,-3.53413 -2.29143,-4.5763 z m -6.47271,-8.40537 c 2.84251,0 5.15507,2.32943 5.15507,5.19267 0,0.80382 -0.18558,1.58376 -0.53406,2.2936 -0.48716,-0.13761 -0.99802,-0.21654 -1.52745,-0.21654 -0.26188,0 -0.57324,0.041 -0.87121,0.0956 -0.82893,-2.86168 -3.01777,-5.05506 -5.77883,-5.92016 0.9475,-0.91027 2.21462,-1.44512 3.55648,-1.44512 z m 3.09356,16.61653 h -18.55825 c -1.98934,0 -3.60855,-1.63101 -3.60855,-3.63486 0,-2.00385 1.61921,-3.63487 3.60855,-3.63487 0.1428,0 0.37271,0.0353 0.615,0.0841 v 0.95441 c 0,0.57327 0.4619,1.03854 1.03102,1.03854 0.56911,0 1.03101,-0.46527 1.03101,-1.03854 v -1.67151 c 0.55314,-3.24698 3.3178,-5.59822 6.6021,-5.59822 3.28481,0 6.04999,2.35228 6.60209,5.60081 v 1.66892 c 0,0.57327 0.4619,1.03854 1.03102,1.03854 0.56912,0 1.03101,-0.46527 1.03101,-1.03854 v -0.95389 c 0.2428,-0.0488 0.47375,-0.0846 0.615,-0.0846 1.98934,0 3.60855,1.63102 3.60855,3.63487 0,2.00385 -1.61921,3.63486 -3.60855,3.63486 z" /><circle
       style="clip-rule:evenodd;display:inline;fill:#e0e623;fill-opacity:1;fill-rule:evenodd;stroke:none;stroke-width:1.2706;stroke-linejoin:round;stroke-miterlimit:2;stroke-dasharray:1.2706, 1.2706;filter:url(#filter968)"
       id="path974-6"
       cx="12"
       cy="12"
       r="5" /><text
       xml:space="preserve"
       style="font-size:80px;line-height:1.25;font-family:Larabiefont;-inkscape-font-specification:Larabiefont;clip-rule:evenodd;display:inline;fill:#e0e723;fill-opacity:1;fill-rule:evenodd;stroke-linejoin:round;stroke-miterlimit:2;filter:url(#filter59525)"
       x="-2.0599999"
       y="170.88"
       id="text15794-9"><tspan
         sodipodi:role="line"
         id="tspan15792-1"
         x="-2.0599999"
         y="170.88">1</tspan></text><text
       xml:space="preserve"
       style="font-size:80px;line-height:1.25;font-family:Larabiefont;-inkscape-font-specification:Larabiefont;clip-rule:evenodd;display:inline;fill:#e0e723;fill-opacity:1;fill-rule:evenodd;stroke-linejoin:round;stroke-miterlimit:2;filter:url(#filter59525)"
       x="46.939999"
       y="170.88"
       id="text15794-9-7"><tspan
         sodipodi:role="line"
         id="tspan15792-1-3"
         x="46.939999"
         y="170.88">0</tspan></text><text
       xml:space="preserve"
       style="font-size:80px;line-height:1.25;font-family:Larabiefont;-inkscape-font-specification:Larabiefont;clip-rule:evenodd;display:inline;fill:#e0e723;fill-opacity:1;fill-rule:evenodd;stroke-linejoin:round;stroke-miterlimit:2;filter:url(#filter59525)"
       x="97.940002"
       y="170.88"
       id="text15794-9-1"><tspan
         sodipodi:role="line"
         id="tspan15792-1-9"
         x="97.940002"
         y="170.88">0</tspan></text><text
       xml:space="preserve"
       style="font-size:80px;line-height:1.25;font-family:Larabiefont;-inkscape-font-specification:Larabiefont;clip-rule:evenodd;display:inline;fill:#e0e723;fill-opacity:1;fill-rule:evenodd;stroke-linejoin:round;stroke-miterlimit:2;filter:url(#filter59525)"
       x="146.94"
       y="170.88"
       id="text15794-9-7-7"><tspan
         sodipodi:role="line"
         id="tspan15792-1-3-6"
         x="146.94"
         y="170.88">8</tspan></text></g></g><g
   inkscape:groupmode="layer"
   id="layer1"
   inkscape:label="elements"
   style="display:inline"
   transform="translate(13.661752,10.604701)"><path
     d="m 611.99595,117.59137 c 0.26394,0 0.52788,-0.10126 0.72893,-0.30429 l 1.45837,-1.46901 c 0.40261,-0.40555 0.40261,-1.06294 0,-1.46849 -0.40262,-0.40554 -1.05576,-0.40554 -1.45786,0 l -1.45837,1.46901 c -0.40261,0.40555 -0.40261,1.06294 0,1.46849 0.20105,0.20303 0.46499,0.30429 0.72893,0.30429 z m -16.56942,6.30493 c 0,-0.57327 -0.4619,-1.03853 -1.03102,-1.03853 h -2.06203 c -0.56912,0 -1.03101,0.46526 -1.03101,1.03853 0,0.57327 0.46189,1.03853 1.03101,1.03853 h 2.06203 c 0.56912,0 1.03102,-0.46526 1.03102,-1.03853 z m 1.25989,6.60923 -1.45836,1.469 c -0.40262,0.40555 -0.40262,1.06294 0,1.46849 0.20104,0.20303 0.46498,0.30429 0.72892,0.30429 0.26394,0 0.52788,-0.10126 0.72893,-0.30429 l 1.45837,-1.46901 c 0.40261,-0.40554 0.40261,-1.06294 0,-1.46848 -0.4021,-0.40555 -1.05576,-0.40555 -1.45786,0 z m 0,-13.21845 c 0.20105,0.20303 0.46499,0.30429 0.72893,0.30429 0.26394,0 0.52788,-0.10126 0.72893,-0.30429 0.40261,-0.40555 0.40261,-1.06294 0,-1.46849 l -1.45837,-1.46901 c -0.4021,-0.40554 -1.05576,-0.40554 -1.45785,0 -0.40262,0.40555 -0.40262,1.06294 0,1.46849 z m 8.01923,-2.73758 c 0.56912,0 1.03101,-0.46526 1.03101,-1.03853 v -2.07707 c 0,-0.57327 -0.46189,-1.03853 -1.03101,-1.03853 -0.56912,0 -1.03101,0.46526 -1.03101,1.03853 v 2.07707 c 0,0.57327 0.46189,1.03853 1.03101,1.03853 z m 12.37217,8.30827 h -2.06203 c -0.56912,0 -1.03101,0.46526 -1.03101,1.03853 0,0.57327 0.46189,1.03853 1.03101,1.03853 h 2.06203 c 0.56912,0 1.03101,-0.46526 1.03101,-1.03853 0,-0.57327 -0.46189,-1.03853 -1.03101,-1.03853 z m -4.35294,7.64776 c -0.4021,-0.40555 -1.05576,-0.40555 -1.45786,0 -0.40261,0.40554 -0.40261,1.06294 0,1.46848 l 1.45837,1.46901 c 0.20105,0.20303 0.46499,0.30429 0.72893,0.30429 0.26394,0 0.52736,-0.10126 0.72893,-0.30429 0.40261,-0.40555 0.40261,-1.06294 0,-1.46849 z m -8.01923,2.73757 c -0.56912,0 -1.03101,0.46526 -1.03101,1.03853 v 2.07707 c 0,0.57327 0.46189,1.03853 1.03101,1.03853 0.56912,0 1.03101,-0.46526 1.03101,-1.03853 v -2.07707 c 0,-0.57327 -0.46189,-1.03853 -1.03101,-1.03853 z m 0,-16.61653 c -3.97971,0 -7.2171,3.26099 -7.2171,7.26973 0,4.00874 3.23739,7.26973 7.2171,7.26973 3.97971,0 7.2171,-3.26099 7.2171,-7.26973 0,-4.00874 -3.23739,-7.26973 -7.2171,-7.26973 z m 0,12.4624 c -2.8425,0 -5.15507,-2.32943 -5.15507,-5.19267 0,-2.86324 2.31257,-5.19267 5.15507,-5.19267 2.84251,0 5.15507,2.32943 5.15507,5.19267 0,2.86324 -2.31256,5.19267 -5.15507,5.19267 z"
     style="clip-rule:evenodd;fill:#e0e722;fill-opacity:1;fill-rule:nonzero;stroke-width:0.517383;stroke-linejoin:round;stroke-miterlimit:2;filter:url(#filter53115)"
     id="path1198" /><path
     d="m 613.98031,179.32776 c -0.26123,0 -0.57295,0.041 -0.86973,0.0955 -1.07892,-3.72228 -4.45634,-6.32352 -8.40466,-6.32352 -3.94883,0 -7.32573,2.60124 -8.40466,6.32352 -0.29678,-0.0545 -0.6085,-0.0955 -0.86973,-0.0955 -3.12495,0 -5.66768,2.56128 -5.66768,5.70902 0,3.14775 2.54273,5.70902 5.66768,5.70902 h 18.54878 c 3.12495,0 5.66768,-2.56127 5.66768,-5.70902 0,-3.14774 -2.54273,-5.70902 -5.66768,-5.70902 z m 0,9.34203 h -18.54878 c -1.98884,0 -3.6067,-1.63018 -3.6067,-3.63301 0,-2.00283 1.61786,-3.63301 3.6067,-3.63301 0.14273,0 0.37252,0.0353 0.6152,0.0841 v 0.95392 c 0,0.57298 0.46166,1.03801 1.03049,1.03801 0.56883,0 1.03049,-0.46503 1.03049,-1.03801 v -1.6743 c 0.5544,-3.24376 3.31714,-5.59172 6.59821,-5.59172 3.28262,0 6.04639,2.35056 6.59924,5.59691 v 1.66911 c 0,0.57298 0.46166,1.03801 1.03049,1.03801 0.56935,0 1.03049,-0.46503 1.03049,-1.03801 v -0.9534 c 0.24216,-0.0488 0.47299,-0.0846 0.61417,-0.0846 1.98833,0 3.60671,1.63018 3.60671,3.63301 0,2.00283 -1.61838,3.63301 -3.60671,3.63301 z"
     style="clip-rule:evenodd;fill:#e0e722;fill-opacity:1;fill-rule:nonzero;stroke-width:0.517119;stroke-linejoin:round;stroke-miterlimit:2;filter:url(#filter53115)"
     id="path1202" /><path
     id="path1214"
     style="clip-rule:evenodd;fill:#e0e722;fill-opacity:1;fill-rule:nonzero;stroke-width:0.517383;stroke-linejoin:round;stroke-miterlimit:2;filter:url(#filter53115)"
     d="m 600.55175,204.29286 c 0.20157,0.20304 0.46499,0.30429 0.72893,0.30429 0.26394,0 0.52736,-0.10125 0.72893,-0.30429 0.40261,-0.40554 0.40261,-1.06294 0,-1.46848 l -1.45786,-1.46849 c -0.40261,-0.40555 -1.05524,-0.40555 -1.45785,0 -0.40261,0.40555 -0.40261,1.06294 0,1.46849 z m 15.31056,0.30429 c 0.26394,0 0.52736,-0.10125 0.72893,-0.30429 l 1.45785,-1.46848 c 0.40261,-0.40555 0.40261,-1.06294 0,-1.46849 -0.40261,-0.40555 -1.05524,-0.40555 -1.45785,0 l -1.45786,1.46849 c -0.40261,0.40554 -0.40261,1.06294 0,1.46848 0.20105,0.20304 0.46499,0.30429 0.72893,0.30429 z m 5.08135,5.26693 h -2.06203 c -0.56963,0 -1.03101,0.46526 -1.03101,1.03853 0,0.57327 0.46138,1.03853 1.03101,1.03853 h 2.06203 c 0.56912,0 1.03101,-0.46526 1.03101,-1.03853 0,-0.57327 -0.46189,-1.03853 -1.03101,-1.03853 z m -12.37217,-8.30827 c 0.56912,0 1.03102,-0.46526 1.03102,-1.03853 v -2.07707 c 0,-0.57327 -0.4619,-1.03853 -1.03102,-1.03853 -0.56963,0 -1.03101,0.46526 -1.03101,1.03853 v 2.07707 c 0,0.57327 0.46138,1.03853 1.03101,1.03853 z m 6.47271,12.5595 c 0.48715,-0.99491 0.74439,-2.08797 0.74439,-3.2127 0,-4.00874 -3.23738,-7.26973 -7.2171,-7.26973 -2.37184,0 -4.58543,1.18444 -5.92626,3.1265 -0.0866,-0.003 -0.17218,-0.0109 -0.2593,-0.0109 -3.95085,0 -7.33,2.60256 -8.40844,6.32674 -0.29744,-0.0545 -0.60933,-0.0956 -0.87069,-0.0956 -3.12706,0 -5.67057,2.56259 -5.67057,5.71194 0,3.14935 2.54351,5.71193 5.67057,5.71193 h 18.55825 c 3.12655,0 5.67058,-2.56258 5.67058,-5.71193 0,-1.87352 -0.9042,-3.53413 -2.29143,-4.5763 z m -6.47271,-8.40537 c 2.84251,0 5.15507,2.32943 5.15507,5.19267 0,0.80382 -0.18558,1.58376 -0.53406,2.2936 -0.48716,-0.13761 -0.99802,-0.21654 -1.52745,-0.21654 -0.26188,0 -0.57324,0.041 -0.87121,0.0956 -0.82893,-2.86168 -3.01777,-5.05506 -5.77883,-5.92016 0.9475,-0.91027 2.21462,-1.44512 3.55648,-1.44512 z m 3.09356,16.61653 H 593.1068 c -1.98934,0 -3.60855,-1.63101 -3.60855,-3.63486 0,-2.00385 1.61921,-3.63487 3.60855,-3.63487 0.1428,0 0.37271,0.0353 0.615,0.0841 v 0.95441 c 0,0.57327 0.4619,1.03854 1.03102,1.03854 0.56911,0 1.03101,-0.46527 1.03101,-1.03854 v -1.67151 c 0.55314,-3.24698 3.3178,-5.59822 6.6021,-5.59822 3.28481,0 6.04999,2.35228 6.60209,5.60081 v 1.66892 c 0,0.57327 0.4619,1.03854 1.03102,1.03854 0.56912,0 1.03101,-0.46527 1.03101,-1.03854 v -0.95389 c 0.2428,-0.0488 0.47375,-0.0846 0.615,-0.0846 1.98934,0 3.60855,1.63102 3.60855,3.63487 0,2.00385 -1.61921,3.63486 -3.60855,3.63486 z" /><path
     id="path1224"
     style="clip-rule:evenodd;fill:#e0e722;fill-opacity:1;fill-rule:nonzero;stroke-width:0.517383;stroke-linejoin:round;stroke-miterlimit:2;filter:url(#filter53115)"
     d="m 599.80803,242.01297 c -0.55108,-0.14072 -1.11195,0.1994 -1.25011,0.75553 l -1.54652,6.2312 c -0.13815,0.55666 0.19796,1.12058 0.75058,1.25974 0.084,0.0213 0.16805,0.0312 0.25054,0.0312 0.46189,0 0.88254,-0.31468 0.99956,-0.78669 l 1.54652,-6.2312 c 0.13816,-0.55717 -0.19795,-1.1211 -0.75057,-1.25974 z m 9.79463,0 c -0.55263,-0.14072 -1.11195,0.1994 -1.25011,0.75553 l -1.54652,6.2312 c -0.13815,0.55666 0.19796,1.12058 0.75058,1.25974 0.084,0.0213 0.16806,0.0312 0.25054,0.0312 0.46189,0 0.88255,-0.31468 0.99957,-0.78669 l 1.546,-6.2312 c 0.13867,-0.55717 -0.19744,-1.1211 -0.75006,-1.25974 z m -4.12354,-3.1156 c -0.55314,-0.1402 -1.11247,0.1994 -1.25062,0.75553 l -3.09304,12.4624 c -0.13816,0.55666 0.19795,1.12006 0.75006,1.25974 0.084,0.0208 0.16805,0.0306 0.25105,0.0306 0.4619,0 0.88203,-0.31468 0.99957,-0.78669 l 3.09304,-12.4624 c 0.13816,-0.55665 -0.19744,-1.12006 -0.75006,-1.25922 z m 8.5136,-6.26236 c -0.26137,0 -0.57325,0.041 -0.87018,0.0956 -1.07999,-3.72418 -4.45862,-6.32674 -8.40895,-6.32674 -3.95033,0 -7.32948,2.60256 -8.40843,6.32674 -0.29745,-0.0545 -0.60933,-0.0956 -0.87069,-0.0956 -3.12655,0 -5.67058,2.56259 -5.67058,5.71194 0,3.14935 2.54403,5.71193 5.67058,5.71193 0.56912,0 1.03101,-0.46526 1.03101,-1.03853 0,-0.57327 -0.46189,-1.03854 -1.03101,-1.03854 -1.98986,0 -3.60855,-1.63101 -3.60855,-3.63486 0,-2.00385 1.61869,-3.63487 3.60855,-3.63487 0.14279,0 0.37271,0.0353 0.615,0.0841 v 0.95441 c 0,0.57327 0.46189,1.03854 1.03101,1.03854 0.56912,0 1.03101,-0.46527 1.03101,-1.03854 v -1.67255 c 0.55366,-3.24646 3.31832,-5.59718 6.6021,-5.59718 3.28378,0 6.04793,2.35072 6.6021,5.59718 v 1.67255 c 0,0.57327 0.46189,1.03854 1.03101,1.03854 0.56912,0 1.03102,-0.46527 1.03102,-1.03854 v -0.95441 c 0.24228,-0.0488 0.47168,-0.0841 0.615,-0.0841 1.98934,0 3.60854,1.63102 3.60854,3.63487 0,2.00385 -1.6192,3.63486 -3.60854,3.63486 -0.56912,0 -1.03102,0.46527 -1.03102,1.03854 0,0.57327 0.4619,1.03853 1.03102,1.03853 3.12654,0 5.67057,-2.56258 5.67057,-5.71193 0,-3.14935 -2.54403,-5.71194 -5.67057,-5.71194 z" /><path
     d="m 613.98478,261.637 c -0.26188,0 -0.57325,0.041 -0.8707,0.0956 -1.07895,-3.72418 -4.4581,-6.32674 -8.40843,-6.32674 -3.95084,0 -7.32999,2.60256 -8.40895,6.32674 -0.29693,-0.0545 -0.60881,-0.0956 -0.87017,-0.0956 -3.12655,0 -5.67058,2.56259 -5.67058,5.71194 0,3.14935 2.54403,5.71193 5.67058,5.71193 h 5.80615 l -2.0244,3.059 c -0.21084,0.31831 -0.23043,0.72801 -0.0516,1.06605 0.17992,0.33753 0.52943,0.54835 0.90936,0.54835 h 1.16659 l -2.0244,3.059 c -0.31549,0.47721 -0.18764,1.12213 0.28611,1.43993 0.17527,0.11839 0.37426,0.17447 0.57067,0.17447 0.33301,0 0.65985,-0.16253 0.85883,-0.46267 l 3.09304,-4.6734 c 0.21085,-0.31831 0.23043,-0.72801 0.0516,-1.06605 -0.17991,-0.33752 -0.52942,-0.54835 -0.90935,-0.54835 h -1.16659 l 1.71818,-2.59633 h 2.67651 l -0.99338,1.5012 c -0.21084,0.31831 -0.23043,0.72801 -0.0515,1.06605 0.18043,0.33753 0.52994,0.54835 0.90987,0.54835 h 1.16659 l -0.99338,1.5012 c -0.31549,0.47721 -0.18764,1.12214 0.28611,1.43993 0.17527,0.11839 0.37426,0.17447 0.57066,0.17447 0.33302,0 0.65985,-0.16253 0.85884,-0.46267 l 2.06203,-3.1156 c 0.21084,-0.31831 0.23043,-0.72801 0.0516,-1.06605 -0.17991,-0.33752 -0.52943,-0.54835 -0.90936,-0.54835 h -1.16659 l 0.68717,-1.03853 h 5.11899 c 3.12654,0 5.67057,-2.56258 5.67057,-5.71193 0,-3.14935 -2.54403,-5.71194 -5.67057,-5.71194 z m 0,9.3468 h -18.55825 c -1.98935,0 -3.60855,-1.63101 -3.60855,-3.63486 0,-2.00385 1.6192,-3.63487 3.60855,-3.63487 0.14279,0 0.37271,0.0353 0.615,0.0841 v 0.95441 c 0,0.57327 0.46137,1.03854 1.03101,1.03854 0.56963,0 1.03101,-0.46527 1.03101,-1.03854 v -1.67151 c 0.55314,-3.24698 3.31781,-5.59822 6.6021,-5.59822 3.28378,0 6.04844,2.35124 6.6021,5.59873 v 1.671 c 0,0.57327 0.46189,1.03854 1.03101,1.03854 0.56912,0 1.03102,-0.46527 1.03102,-1.03854 v -0.95389 c 0.24228,-0.0488 0.47375,-0.0846 0.615,-0.0846 1.98934,0 3.60854,1.63102 3.60854,3.63487 0,2.00385 -1.6192,3.63486 -3.60854,3.63486 z"
     style="clip-rule:evenodd;fill:#e0e722;fill-opacity:1;fill-rule:nonzero;stroke-width:0.517383;stroke-linejoin:round;stroke-miterlimit:2;filter:url(#filter53115)"
     id="path1228" /><path
     id="path1256"
     style="clip-rule:evenodd;fill:#e0e722;fill-opacity:1;fill-rule:nonzero;stroke-width:0.517119;stroke-linejoin:round;stroke-miterlimit:2;filter:url(#filter53115)"
     d="m 612.43458,305.54678 h -1.03049 c -0.56883,0 -1.03049,0.46503 -1.03049,1.03801 0,0.57297 0.46166,1.038 1.03049,1.038 h 1.03049 c 0.56883,0 1.03049,-0.46503 1.03049,-1.038 0,-0.57298 -0.46166,-1.03801 -1.03049,-1.03801 z m -4.12195,1.03801 c 0,-0.57298 -0.46166,-1.03801 -1.03049,-1.03801 h -1.03049 c -0.56883,0 -1.03048,0.46503 -1.03048,1.03801 0,0.57297 0.46165,1.038 1.03048,1.038 h 1.03049 c 0.56883,0 1.03049,-0.46503 1.03049,-1.038 z m 0.51524,0.89839 c -0.49309,-0.28649 -1.12323,-0.11626 -1.40764,0.37991 l -0.51525,0.89891 c -0.28441,0.49668 -0.11593,1.13142 0.37716,1.41791 0.1623,0.095 0.33955,0.13961 0.51421,0.13961 0.35604,0 0.7028,-0.1858 0.89344,-0.519 l 0.51524,-0.89891 c 0.28442,-0.49669 0.11593,-1.13142 -0.37716,-1.41843 z m 1.03049,-1.7973 c 0.1623,0.0944 0.33955,0.13857 0.51421,0.13857 0.35604,0 0.7028,-0.1858 0.89344,-0.519 l 0.51524,-0.89891 c 0.28441,-0.49669 0.11593,-1.13143 -0.37716,-1.41792 -0.49309,-0.28648 -1.12323,-0.11625 -1.40764,0.37991 l -0.51525,0.89891 c -0.28441,0.49721 -0.11593,1.13195 0.37716,1.41844 z m -1.16857,-2.31735 c -0.28442,-0.49616 -0.91456,-0.66639 -1.40765,-0.37991 -0.49309,0.28701 -0.66157,0.92123 -0.37716,1.41792 l 0.51525,0.89891 c 0.19064,0.3332 0.53688,0.519 0.89343,0.519 0.17467,0 0.35191,-0.0446 0.51421,-0.13857 0.49309,-0.28701 0.66158,-0.92123 0.37716,-1.41844 z m 2.57622,4.49508 c -0.2839,-0.49617 -0.91508,-0.6664 -1.40765,-0.37991 -0.49309,0.287 -0.66157,0.92122 -0.37716,1.41791 l 0.51525,0.89891 c 0.19064,0.3332 0.53688,0.519 0.89343,0.519 0.17467,0 0.35191,-0.0446 0.51421,-0.13909 0.49309,-0.28701 0.66157,-0.92123 0.37716,-1.41791 z m -5.5296,-5.84811 c 0,-0.57298 -0.46166,-1.03801 -1.03049,-1.03801 h -1.03049 c -0.56883,0 -1.03048,0.46503 -1.03048,1.03801 0,0.57297 0.46165,1.038 1.03048,1.038 h 1.03049 c 0.56883,0 1.03049,-0.46503 1.03049,-1.038 z m -5.15244,0 c 0,-0.57298 -0.46166,-1.03801 -1.03049,-1.03801 H 598.523 c -0.56883,0 -1.03049,0.46503 -1.03049,1.03801 0,0.57297 0.46166,1.038 1.03049,1.038 h 1.03048 c 0.56883,0 1.03049,-0.46503 1.03049,-1.038 z m 0.51525,0.89839 c -0.49309,-0.28649 -1.12324,-0.11626 -1.40765,0.38043 l -0.51524,0.89891 c -0.28442,0.49668 -0.11593,1.13142 0.37715,1.41791 0.16231,0.0945 0.33955,0.13909 0.51422,0.13909 0.35603,0 0.70279,-0.1858 0.89343,-0.519 l 0.51524,-0.89891 c 0.28442,-0.49669 0.11593,-1.13142 -0.37715,-1.41843 z m 1.03048,-1.79679 c 0.1623,0.0945 0.33955,0.13858 0.51422,0.13858 0.35603,0 0.70279,-0.1858 0.89343,-0.519 l 0.51524,-0.89891 c 0.28442,-0.49669 0.11593,-1.13143 -0.37716,-1.41792 -0.49308,-0.28649 -1.12374,-0.11625 -1.40764,0.37991 l -0.51525,0.89891 c -0.28441,0.49669 -0.11593,1.13143 0.37716,1.41843 z m -1.16857,-2.31734 c -0.28441,-0.49616 -0.91507,-0.6664 -1.40765,-0.38043 -0.49308,0.28701 -0.66157,0.92123 -0.37715,1.41792 l 0.51524,0.89891 c 0.19064,0.3332 0.53688,0.519 0.89343,0.519 0.17467,0 0.35191,-0.0446 0.51422,-0.13857 0.49308,-0.28701 0.66157,-0.92123 0.37715,-1.41844 z m 2.57622,4.49456 c -0.2839,-0.49617 -0.91456,-0.6664 -1.40765,-0.38043 -0.49309,0.28701 -0.66157,0.92123 -0.37716,1.41791 l 0.51525,0.89891 c 0.19064,0.3332 0.53688,0.519 0.89343,0.519 0.17467,0 0.35191,-0.0446 0.51421,-0.13909 0.49309,-0.28701 0.66158,-0.92123 0.37716,-1.41791 z m 10.44296,-11.65886 c -0.26123,0 -0.57295,0.041 -0.86973,0.0955 -1.07892,-3.72228 -4.45634,-6.32352 -8.40466,-6.32352 -3.94831,0 -7.32573,2.60124 -8.40414,6.32352 -0.2973,-0.0545 -0.60902,-0.0955 -0.87025,-0.0955 -3.12495,0 -5.66768,2.56128 -5.66768,5.70902 0,3.14775 2.54273,5.70902 5.66768,5.70902 0.56883,0 1.03049,-0.46503 1.03049,-1.038 0,-0.57298 -0.46166,-1.03801 -1.03049,-1.03801 -1.98884,0 -3.6067,-1.63018 -3.6067,-3.63301 0,-2.00283 1.61786,-3.63301 3.6067,-3.63301 0.14273,0 0.37252,0.0353 0.61469,0.0841 v 0.95392 c 0,0.57298 0.46166,1.03801 1.03049,1.03801 0.56883,0 1.03048,-0.46503 1.03048,-1.03801 v -1.6717 c 0.55389,-3.2448 3.31714,-5.59432 6.59873,-5.59432 3.28159,0 6.04484,2.34952 6.59873,5.59432 v 1.6717 c 0,0.57298 0.46166,1.03801 1.03049,1.03801 0.56883,0 1.03048,-0.46503 1.03048,-1.03801 v -0.95392 c 0.24217,-0.0488 0.47197,-0.0841 0.61469,-0.0841 1.98833,0 3.60671,1.63018 3.60671,3.63301 0,2.00283 -1.61838,3.63301 -3.60671,3.63301 -0.56883,0 -1.03049,0.46503 -1.03049,1.03801 0,0.57297 0.46166,1.038 1.03049,1.038 3.12495,0 5.66768,-2.56127 5.66768,-5.70902 0,-3.14774 -2.54273,-5.70902 -5.66768,-5.70902 z" /><path
     id="path1266"
     style="clip-rule:evenodd;fill:#e0e722;fill-opacity:1;fill-rule:nonzero;stroke-width:0.670669;stroke-linejoin:round;stroke-miterlimit:2;filter:url(#filter53115)"
     d="m 588.66729,324.1782 22.05247,6.8e-4 c 2.9476,0 5.3459,-2.41579 5.3459,-5.38488 0,-2.96909 -2.3983,-5.38488 -5.3459,-5.38488 -2.94759,0 -5.34589,2.41579 -5.34589,5.38488 0,0.74311 0.59807,1.34622 1.33647,1.34622 0.73774,0 1.33648,-0.60311 1.33648,-1.34622 0,-1.48488 1.19881,-2.69244 2.67294,-2.69244 1.47413,0 2.67295,1.20756 2.67295,2.69244 0,1.48488 -1.19882,2.69244 -2.67295,2.69244 l -22.05247,-6.8e-4 c -0.73774,0 -1.33648,0.60311 -1.33648,1.34622 0,0.74312 0.59874,1.34622 1.33648,1.34622 z m 30.07131,-4.03798 c -0.73773,0 -1.33647,0.6031 -1.33647,1.34622 0,0.74311 0.59874,1.34622 1.33647,1.34622 0.36887,0 0.66824,0.30155 0.66824,0.67311 0,0.37155 -0.29937,0.67311 -0.66824,0.67311 h -2.67294 c -0.7384,0 -1.33648,0.6031 -1.33648,1.34622 0,0.74311 0.59808,1.34622 1.33648,1.34622 h 2.67294 c 1.84233,0 3.34119,-1.50979 3.34119,-3.36555 0,-1.85577 -1.49886,-3.36555 -3.34119,-3.36555 z m -14.03363,9.42354 h -16.03701 c -0.73774,0 -1.33648,0.60311 -1.33648,1.34622 0,0.74311 0.59874,1.34622 1.33648,1.34622 h 16.03701 c 0.36886,0 0.66823,0.30155 0.66823,0.67311 0,0.37156 -0.29937,0.67311 -0.66823,0.67311 -0.7384,0 -1.33648,0.60311 -1.33648,1.34622 0,0.74311 0.59808,1.34622 1.33648,1.34622 1.84232,0 3.34118,-1.50978 3.34118,-3.36555 0,-1.85576 -1.49886,-3.36555 -3.34118,-3.36555 z m 4.01008,-4.03866 -20.04776,-6.7e-4 c -0.73774,0 -1.33648,0.6031 -1.33648,1.34622 0,0.74311 0.59874,1.34622 1.33648,1.34622 l 20.04776,6.7e-4 c 2.57873,0 4.67766,2.11424 4.67766,4.71177 0,2.59753 -2.09893,4.71177 -4.67766,4.71177 -0.7384,0 -1.33647,0.60311 -1.33647,1.34622 0,0.74312 0.59807,1.34622 1.33647,1.34622 4.05286,0 7.35061,-3.3218 7.35061,-7.40421 0,-4.08241 -3.29775,-7.40421 -7.35061,-7.40421 z" /><path
     id="path1290"
     style="clip-rule:evenodd;fill:#e0e722;fill-opacity:1;fill-rule:nonzero;stroke-width:0.517383;stroke-linejoin:round;stroke-miterlimit:2;filter:url(#filter53115)"
     d="m 599.23582,353.83487 h 4.03384 c 0.36807,0 0.70779,-0.19732 0.89234,-0.51771 0.92121,-1.60245 2.63321,-2.59789 4.46738,-2.59789 2.84251,0 5.15507,2.32943 5.15507,5.19267 0,0.72334 -0.14949,1.43681 -0.42632,2.07706 H 602.4433 c -0.56964,0 -1.03101,0.46527 -1.03101,1.03854 0,0.57327 0.46137,1.03853 1.03101,1.03853 h 11.54426 c 0.35106,0 0.67738,-0.17967 0.8676,-0.47721 0.009,-0.014 0.0273,-0.0431 0.0356,-0.0582 0.62479,-1.09669 0.95575,-2.34761 0.95575,-3.61877 0,-4.00874 -3.23738,-7.26973 -7.2171,-7.26973 -2.36308,0 -4.58131,1.17977 -5.92369,3.1156 h -3.46987 c -0.56964,0 -1.03102,0.46526 -1.03102,1.03853 0,0.57327 0.46138,1.03853 1.03102,1.03853 z m 14.03313,13.50041 -13.91869,5.2e-4 c -0.56964,0 -1.03102,0.46527 -1.03102,1.03854 0,0.57327 0.46138,1.03853 1.03102,1.03853 l 13.91869,-5.2e-4 c 0.56912,0 1.03101,-0.46526 1.03101,-1.03853 0,-0.57327 -0.46189,-1.03854 -1.03101,-1.03854 z m -17.01173,5.2e-4 -3.20749,-5.2e-4 c -0.56963,0 -1.03101,0.46527 -1.03101,1.03854 0,0.57327 0.46138,1.03853 1.03101,1.03853 l 3.20749,5.2e-4 c 0.56912,0 1.03101,-0.46526 1.03101,-1.03853 0,-0.57327 -0.46189,-1.03854 -1.03101,-1.03854 z m 20.10477,-3.1156 h -26.4053 c -0.56963,0 -1.03101,0.46527 -1.03101,1.03854 0,0.57327 0.46138,1.03853 1.03101,1.03853 h 26.4053 c 0.56912,0 1.03101,-0.46526 1.03101,-1.03853 0,-0.57327 -0.46189,-1.03854 -1.03101,-1.03854 z m 0,-3.1156 h -27.95182 c -0.56963,0 -1.03101,0.46527 -1.03101,1.03854 0,0.57327 0.46138,1.03853 1.03101,1.03853 h 27.95182 c 0.56912,0 1.03101,-0.46526 1.03101,-1.03853 0,-0.57327 -0.46189,-1.03854 -1.03101,-1.03854 z m -26.40581,-1.03853 h 9.39408 c 0.56912,0 1.03101,-0.46526 1.03101,-1.03853 0,-0.57327 -0.46189,-1.03854 -1.03101,-1.03854 h -9.39408 c -0.56964,0 -1.03102,0.46527 -1.03102,1.03854 0,0.57327 0.46138,1.03853 1.03102,1.03853 z m 3.09355,-3.1156 h 12.48661 c 0.56912,0 1.03102,-0.46526 1.03102,-1.03853 0,-0.57327 -0.4619,-1.03854 -1.03102,-1.03854 h -12.48661 c -0.56963,0 -1.03101,0.46527 -1.03101,1.03854 0,0.57327 0.46138,1.03853 1.03101,1.03853 z m 7.55991,-7.64828 c 0.20156,0.20304 0.46499,0.30429 0.72893,0.30429 0.26394,0 0.52788,-0.10125 0.72893,-0.30429 0.40261,-0.40554 0.40261,-1.06294 0,-1.46848 l -1.45786,-1.46849 c -0.40261,-0.40555 -1.05524,-0.40555 -1.45785,0 -0.40261,0.40555 -0.40261,1.06294 0,1.46849 z m 15.31056,0.30429 c 0.26394,0 0.52736,-0.10125 0.72892,-0.30429 l 1.45786,-1.46848 c 0.40261,-0.40555 0.40261,-1.06294 0,-1.46849 -0.40261,-0.40555 -1.05524,-0.40555 -1.45786,0 l -1.45785,1.46849 c -0.40261,0.40554 -0.40261,1.06294 0,1.46848 0.20105,0.20304 0.46499,0.30429 0.72893,0.30429 z m 5.08135,5.26692 h -2.06203 c -0.56963,0 -1.03101,0.46527 -1.03101,1.03854 0,0.57327 0.46138,1.03853 1.03101,1.03853 h 2.06203 c 0.56912,0 1.03101,-0.46526 1.03101,-1.03853 0,-0.57327 -0.46189,-1.03854 -1.03101,-1.03854 z m -12.37217,-8.30826 c 0.56912,0 1.03102,-0.46526 1.03102,-1.03853 v -2.07707 c 0,-0.57327 -0.4619,-1.03853 -1.03102,-1.03853 -0.56963,0 -1.03101,0.46526 -1.03101,1.03853 v 2.07707 c 0,0.57327 0.46138,1.03853 1.03101,1.03853 z" /><path
     d="m 611.08829,151.82707 c -2.93274,0 -5.31872,-2.40337 -5.31872,-5.3575 0,-0.59147 -0.47655,-1.0715 -1.06374,-1.0715 -4.10605,0 -7.4462,3.36451 -7.4462,7.50051 0,4.13599 3.34015,7.50051 7.4462,7.50051 4.10605,0 7.4462,-3.36452 7.4462,-7.50051 0,-0.59147 -0.47655,-1.07151 -1.06374,-1.07151 z m -6.38246,6.42901 c -2.93274,0 -5.31872,-2.40337 -5.31872,-5.3575 0,-2.61875 1.87485,-4.80515 4.34433,-5.26751 0.49677,3.20701 3.01944,5.74807 6.20375,6.249 -0.459,2.48749 -2.62904,4.37601 -5.22936,4.37601 z"
     style="clip-rule:evenodd;fill:#e0e722;fill-opacity:1;fill-rule:nonzero;stroke-width:0.533808;stroke-linejoin:round;stroke-miterlimit:2;filter:url(#filter53115)"
     id="path1294" /><path
     id="path1314"
     style="clip-rule:evenodd;fill:#e0e722;fill-opacity:1;fill-rule:nonzero;stroke-width:0.515805;stroke-linejoin:round;stroke-miterlimit:2;filter:url(#filter53115)"
     d="m 617.04004,391.64357 -13.87623,5.2e-4 c -0.5679,0 -1.02787,0.46384 -1.02787,1.03537 0,0.57152 0.45997,1.03536 1.02787,1.03536 l 13.87623,-5.2e-4 c 0.56738,0 1.02787,-0.46384 1.02787,-1.03536 0,-0.57152 -0.46049,-1.03537 -1.02787,-1.03537 z m -11.82049,-8.2824 c 0,0.57152 0.45997,1.03537 1.02787,1.03537 h 10.79262 c 0.56738,0 1.02787,-0.46385 1.02787,-1.03537 0,-0.57152 -0.46049,-1.03536 -1.02787,-1.03536 h -10.79262 c -0.5679,0 -1.02787,0.46384 -1.02787,1.03536 z m 4.62541,-2.07073 h 4.11147 c 0.56738,0 1.02787,-0.46384 1.02787,-1.03536 0,-0.57153 -0.46049,-1.03537 -1.02787,-1.03537 h -4.11147 c -0.5679,0 -1.02787,0.46384 -1.02787,1.03537 0,0.57152 0.45997,1.03536 1.02787,1.03536 z m -9.76475,10.35365 -6.16722,-5.2e-4 c -0.56789,0 -1.02786,0.46385 -1.02786,1.03537 0,0.57152 0.45997,1.03536 1.02786,1.03536 l 6.16722,5.2e-4 c 0.56738,0 1.02786,-0.46384 1.02786,-1.03536 0,-0.57153 -0.46048,-1.03537 -1.02786,-1.03537 z m 20.04343,-3.10609 h -29.29425 c -0.5679,0 -1.02787,0.46384 -1.02787,1.03536 0,0.57152 0.45997,1.03537 1.02787,1.03537 h 29.29425 c 0.56739,0 1.02787,-0.46385 1.02787,-1.03537 0,-0.57152 -0.46048,-1.03536 -1.02787,-1.03536 z m 1.02787,-2.07073 c 0,-0.57153 -0.46048,-1.03537 -1.02787,-1.03537 h -30.83605 c -0.5679,0 -1.02787,0.46384 -1.02787,1.03537 0,0.57152 0.45997,1.03536 1.02787,1.03536 h 30.83605 c 0.56739,0 1.02787,-0.46384 1.02787,-1.03536 z m -30.32264,-2.07073 h 12.33494 c 0.56738,0 1.02787,-0.46385 1.02787,-1.03537 0,-0.57152 -0.46049,-1.03536 -1.02787,-1.03536 h -12.33494 c -0.56789,0 -1.02786,0.46384 -1.02786,1.03536 0,0.57152 0.45997,1.03537 1.02786,1.03537 z m 3.08412,-3.1061 h 12.33443 c 0.56738,0 1.02787,-0.46384 1.02787,-1.03536 0,-0.57153 -0.46049,-1.03537 -1.02787,-1.03537 h -12.33443 c -0.56789,0 -1.02786,0.46384 -1.02786,1.03537 0,0.57152 0.45997,1.03536 1.02786,1.03536 z m 6.16722,-3.10609 h 6.16721 c 0.56738,0 1.02787,-0.46385 1.02787,-1.03537 0,-0.57152 -0.46049,-1.03536 -1.02787,-1.03536 h -6.16721 c -0.5679,0 -1.02787,0.46384 -1.02787,1.03536 0,0.57152 0.45997,1.03537 1.02787,1.03537 z" /><text
     x="496.04425"
     y="123.4673"
     style="font-style:normal;font-variant:normal;font-weight:normal;font-stretch:normal;font-size:18px;line-height:24px;font-family:Larabiefont;-inkscape-font-specification:Larabiefont;clip-rule:evenodd;display:inline;mix-blend-mode:normal;fill:#e0e722;fill-opacity:1;fill-rule:evenodd;stroke-linejoin:round;stroke-miterlimit:2;filter:url(#filter968)"
     id="text1078-5-5-1-1-1"><tspan
       sodipodi:role="line"
       x="496.04425"
       y="123.4673"
       style="font-size:18px;fill:#e0e722;fill-opacity:1"
       id="tspan36357-5-9">bpm</tspan><tspan
       sodipodi:role="line"
       x="496.04425"
       y="147.4673"
       style="font-size:18px;fill:#e0e722;fill-opacity:1"
       id="tspan20365">steps</tspan><tspan
       sodipodi:role="line"
       x="496.04425"
       y="171.4673"
       style="font-size:18px;fill:#e0e722;fill-opacity:1"
       id="tspan18753" /></text><text
     x="416.51425"
     y="135.4473"
     style="font-style:normal;font-variant:normal;font-weight:normal;font-stretch:normal;font-size:32px;line-height:32px;font-family:Larabiefont;-inkscape-font-specification:Larabiefont;clip-rule:evenodd;display:inline;mix-blend-mode:normal;fill:#e0e623;fill-opacity:1;fill-rule:evenodd;stroke-linejoin:round;stroke-miterlimit:2;filter:url(#filter968)"
     id="text1078-5-5"><tspan
       sodipodi:role="line"
       x="416.51425"
       y="135.4473"
       style="font-size:32px;fill:#e0e623;fill-opacity:1"
       id="tspan27749">0</tspan><tspan
       sodipodi:role="line"
       x="416.51425"
       y="167.4473"
       style="font-size:32px;fill:#e0e623;fill-opacity:1"
       id="tspan9472">1</tspan><tspan
       sodipodi:role="line"
       x="416.51425"
       y="199.4473"
       style="font-size:32px;fill:#e0e623;fill-opacity:1"
       id="tspan9474">2</tspan><tspan
       sodipodi:role="line"
       x="416.51425"
       y="231.4473"
       style="font-size:32px;fill:#e0e623;fill-opacity:1"
       id="tspan9476">3</tspan><tspan
       sodipodi:role="line"
       x="416.51425"
       y="263.4473"
       style="font-size:32px;fill:#e0e623;fill-opacity:1"
       id="tspan9478">4</tspan><tspan
       sodipodi:role="line"
       x="416.51425"
       y="295.4473"
       style="font-size:32px;fill:#e0e623;fill-opacity:1"
       id="tspan9480">5</tspan><tspan
       sodipodi:role="line"
       x="416.51425"
       y="327.4473"
       style="font-size:32px;fill:#e0e623;fill-opacity:1"
       id="tspan9482">6</tspan><tspan
       sodipodi:role="line"
       x="416.51425"
       y="359.4473"
       style="font-size:32px;fill:#e0e623;fill-opacity:1"
       id="tspan9484">7</tspan><tspan
       sodipodi:role="line"
       x="416.51425"
       y="391.4473"
       style="font-size:32px;fill:#e0e623;fill-opacity:1"
       id="tspan9486">8</tspan><tspan
       sodipodi:role="line"
       x="416.51425"
       y="423.4473"
       style="font-size:32px;fill:#e0e623;fill-opacity:1"
       id="tspan9488">9</tspan><tspan
       sodipodi:role="line"
       x="416.51425"
       y="455.4473"
       style="font-size:32px;fill:#e0e623;fill-opacity:1"
       id="tspan9490">/</tspan><tspan
       sodipodi:role="line"
       x="416.51425"
       y="487.4473"
       style="font-size:32px;fill:#e0e623;fill-opacity:1"
       id="tspan9678">--</tspan></text><text
     x="434.99826"
     y="134.03929"
     style="font-style:normal;font-variant:normal;font-weight:normal;font-stretch:normal;font-size:32px;line-height:32px;font-family:Larabiefont;-inkscape-font-specification:Larabiefont;clip-rule:evenodd;display:inline;mix-blend-mode:normal;fill:#e0e623;fill-opacity:1;fill-rule:evenodd;stroke-linejoin:round;stroke-miterlimit:2;filter:url(#filter968)"
     id="text1078-5-5-4"><tspan
       sodipodi:role="line"
       x="434.99826"
       y="134.03929"
       style="font-size:32px;fill:#e0e623;fill-opacity:1"
       id="tspan27749-2">°</tspan></text><text
     x="336.40225"
     y="135.49759"
     style="font-style:normal;font-variant:normal;font-weight:normal;font-stretch:normal;font-size:32px;line-height:32px;font-family:Larabiefont;-inkscape-font-specification:Larabiefont;clip-rule:evenodd;display:inline;mix-blend-mode:normal;fill:#e0e722;fill-opacity:1;fill-rule:evenodd;stroke-linejoin:round;stroke-miterlimit:2;filter:url(#filter968)"
     id="text1078-5"><tspan
       sodipodi:role="line"
       x="336.40225"
       y="135.49759"
       id="tspan19683-3"
       style="font-size:32px;fill:#e0e722;fill-opacity:1">01</tspan><tspan
       sodipodi:role="line"
       x="336.40225"
       y="167.49759"
       style="font-size:32px;fill:#e0e722;fill-opacity:1"
       id="tspan25718">02</tspan><tspan
       sodipodi:role="line"
       x="336.40225"
       y="199.49759"
       style="font-size:32px;fill:#e0e722;fill-opacity:1"
       id="tspan25720">03</tspan><tspan
       sodipodi:role="line"
       x="336.40225"
       y="231.49759"
       style="font-size:32px;fill:#e0e722;fill-opacity:1"
       id="tspan25722">04</tspan><tspan
       sodipodi:role="line"
       x="336.40225"
       y="263.49759"
       style="font-size:32px;fill:#e0e722;fill-opacity:1"
       id="tspan25724">05</tspan><tspan
       sodipodi:role="line"
       x="336.40225"
       y="295.49759"
       style="font-size:32px;fill:#e0e722;fill-opacity:1"
       id="tspan25726">06</tspan><tspan
       sodipodi:role="line"
       x="336.40225"
       y="327.49759"
       style="font-size:32px;fill:#e0e722;fill-opacity:1"
       id="tspan25728">07</tspan><tspan
       sodipodi:role="line"
       x="336.40225"
       y="359.49759"
       style="font-size:32px;fill:#e0e722;fill-opacity:1"
       id="tspan25730">08</tspan><tspan
       sodipodi:role="line"
       x="336.40225"
       y="391.49759"
       style="font-size:32px;fill:#e0e722;fill-opacity:1"
       id="tspan25732">09</tspan><tspan
       sodipodi:role="line"
       x="336.40225"
       y="423.49759"
       style="font-size:32px;fill:#e0e722;fill-opacity:1"
       id="tspan25734">10</tspan><tspan
       sodipodi:role="line"
       x="336.40225"
       y="455.49759"
       style="font-size:32px;fill:#e0e722;fill-opacity:1"
       id="tspan25736">11</tspan><tspan
       sodipodi:role="line"
       x="336.40225"
       y="487.49759"
       style="font-size:32px;fill:#e0e722;fill-opacity:1"
       id="tspan25738">12</tspan></text><text
     x="236.60626"
     y="135.49759"
     style="font-style:normal;font-variant:normal;font-weight:normal;font-stretch:normal;font-size:32px;line-height:32px;font-family:Larabiefont;-inkscape-font-specification:Larabiefont;clip-rule:evenodd;display:inline;mix-blend-mode:normal;fill:#e0e722;fill-opacity:1;fill-rule:evenodd;stroke-linejoin:round;stroke-miterlimit:2;filter:url(#filter968)"
     id="text1078"><tspan
       style="font-size:32px"
       sodipodi:role="line"
       id="tspan22487"
       x="236.60626"
       y="135.49759">Sun</tspan><tspan
       sodipodi:role="line"
       id="tspan19673"
       x="236.60626"
       y="167.49759"
       style="font-size:32px">Mon</tspan><tspan
       sodipodi:role="line"
       x="236.60626"
       y="199.49759"
       id="tspan19675"
       style="font-size:32px">Tue</tspan><tspan
       sodipodi:role="line"
       x="236.60626"
       y="231.49759"
       id="tspan19677"
       style="font-size:32px">Wed</tspan><tspan
       sodipodi:role="line"
       x="236.60626"
       y="263.49759"
       id="tspan19679"
       style="font-size:32px">Thu</tspan><tspan
       sodipodi:role="line"
       x="236.60626"
       y="295.49759"
       id="tspan19681"
       style="font-size:32px">Fri</tspan><tspan
       sodipodi:role="line"
       x="236.60626"
       y="327.49759"
       id="tspan19683"
       style="font-size:32px">Sat</tspan></text><text
     xml:space="preserve"
     style="font-size:80px;line-height:1.25;font-family:Larabiefont;-inkscape-font-specification:Larabiefont;fill:#e0e723;fill-opacity:1;filter:url(#filter59525)"
     x="234.27856"
     y="60.150597"
     id="text15794"><tspan
       sodipodi:role="line"
       id="tspan15792"
       x="234.27856"
       y="60.150597">0123456789</tspan></text><rect
     x="240.33824"
     y="81.395302"
     width="186"
     height="2"
     style="clip-rule:evenodd;fill:#e0e722;fill-opacity:1;fill-rule:evenodd;stroke-width:0.75304;stroke-linejoin:round;stroke-miterlimit:2;filter:url(#filter59525)"
     id="rect1190" /><circle
     style="opacity:1;fill:#e0e623;fill-opacity:1;stroke:none;stroke-width:1.2706;stroke-miterlimit:2;stroke-dasharray:1.2706, 1.2706;filter:url(#filter968)"
     id="path974"
     cx="683.33826"
     cy="116.3953"
     r="5" /></g></svg>
